<?xml version="1.0" encoding="utf-8"?>
<!-- Generator: Adobe Illustrator 17.1.0, SVG Export Plug-In . SVG Version: 6.00 Build 0)  -->
<!DOCTYPE svg PUBLIC "-//W3C//DTD SVG 1.1//EN" "http://www.w3.org/Graphics/SVG/1.1/DTD/svg11.dtd">
<svg version="1.1" id="Layer_2" xmlns="http://www.w3.org/2000/svg" xmlns:xlink="http://www.w3.org/1999/xlink" x="0px" y="0px"
	 viewBox="0 0 306.3 973.3" enable-background="new 0 0 306.3 973.3" xml:space="preserve">
<path id="i6" fill="none" stroke="#000000" stroke-width="0.25" stroke-miterlimit="10" d="M219.7,675.2c0.3-0.4,0.8-0.2,0.9,0.2
	c6.7,32.3,14.1,64.2,19.5,96.5c2.2,13.3,4.5,26.6,6.8,39.8c0.8,4.5-0.2,7.7-5.2,9.2c-2.2,0.6-4.1,2.2-6,3.6
	c-4.1,3.1-6.5,6.7-4.9,12.4c1.4,4.9,1.8,10.2,2.6,15.3c0.7,4.7,2.1,9.4-0.9,13.9c-0.7,1.1-0.6,2.9-0.4,4.4
	c1.8,18.7,3.5,37.5,5.5,56.2c0.6,5.3-0.7,7.4-6.7,9.1c-10.5,2.9-10.5,3.5-6.4,13.4c1.9,4.5,2.1,10,2,14.6c-0.1,7.8-1.1,8.7-9.5,8.1
	c-18.4-1.2-36.8-2.7-55.3-3.8c-3.7-0.2-5.9-1.5-7.1-4.9c-0.3-0.8-0.8-1.5-1.2-2.2c-4.5-8.4-4.3-7.3-13.4-5.4
	c-7.1,1.5-14.5,2.8-21.9,3.2c-7.9,0.5-15.9,1-23.8,0.6c-5.1-0.2-10.2,0.1-15.2,0.9c-12.1,1.9-24.2-0.4-35.9-3.5
	c-8.6-2.3-17.4-2.6-25.8-5.2c-4.8-1.5-9.5-3.1-14.8-6.6c-0.5-0.3-0.3-1,0.3-1c2,0,3.3-0.1,4.6,0c6.9,0.4,13.6-0.8,20.1-2.9
	c9-2.8,18.4-1.8,27.6-3.3c10.3-1.6,21-1.1,30.5-6.5c3.4-2,4.9-4.1,5.1-8.1c2-41.9,4.9-83.8,8.4-125.6c1.5-18.1,3.3-36.1,6.7-54
	c0.6-3.4,1-6.7,1.8-10.1c0.7-2.9,4.1-3.3,6.3-3.8c12-2.8,23.8-6.1,35.2-10.9c21.8-9.1,41.8-21.2,61.3-34.4
	C214.3,682.1,217.2,678.6,219.7,675.2z"/>
<path id="i5" fill="none" stroke="#000000" stroke-width="0.25" stroke-miterlimit="10" d="M227.2,590.1c0.6-0.6,1.6,0,1.4,0.8
	c-3.2,16.7-6.1,35.1-8.4,51.9c-0.8,5.8-0.2,12.1-0.1,17.9c0.2,9.5-6.2,14.5-13.8,19.4c-15.2,9.8-29.8,19.7-46.3,27.3
	c-15.6,7.2-31.9,13.1-48.8,16.3c-3.3,0.6-4.6,0.4-5.1-3.4c-0.5-4.9-0.1-63.9-4.3-89.1c-1.3-7.5-1-7.9,6.5-7.1
	c17.1,1.9,33.8-0.4,50.4-4.6c18.8-4.8,36.9-11.3,54.5-19.1C218.3,598.3,223,593.8,227.2,590.1z"/>
<path id="i4" fill="none" stroke="#000000" stroke-width="0.25" stroke-miterlimit="10" d="M239,469.1c-8.3,29.3-5.6,60.1-7,88.8
	c-0.2,4.7-0.1,9.4,0.1,14c0.5,11.9-9.3,18-19.4,22.5c-25,11.1-47.8,19.2-75,23.1c-10.2,1.5-22.4,2.4-32.8,0.5
	c-4.2-0.8-5.8-2.5-5.7-6.4c0.2-17.5,1.9-33.7,3.4-51.2c1.3-14.5,1.3-29-1.8-43.3c-0.9-4,0.3-5.5,3.6-6.7c7.6-2.7,38.4-10,46.9-11.9
	c13.2-3.1,76.6-25.5,87.1-30.4C238.8,468.1,239.1,468.6,239,469.1z"/>
<path id="i3" fill="none" stroke="#000000" stroke-width="0.25" stroke-miterlimit="10" d="M252.1,362.9c0.7-0.4,1.6,0.1,1.7,1
	c1.1,16.8-4.8,32.5-8,48.6c-3,15.1-6.2,30.1-4.9,45.6c0.3,3.6-2.9,4.2-7.4,6.5c-5.4,2.7-79.8,27.8-96.4,31.9
	c-11.3,2.8-22.8,6.7-34.2,8.9c-1.8,0.3-2.5,0.1-2.6-1.7c-1.6-23-11.5-43.9-16-66.2c-1.5-7.5-3.4-14.9-5.5-22.3
	c-1.1-3.9,0.3-6.2,3.2-8.2c5.8-4.2,12.5-6.8,19.2-8.6C101.1,398.3,234.5,371.7,252.1,362.9z"/>
<path id="i2" fill="none" stroke="#000000" stroke-width="0.25" stroke-miterlimit="10" d="M249.3,264.7c1.9,1.1,1.7,3.5,1.8,5.5
	c1.3,25.2,2.6,58.5,3.3,84.2c0,1.3-0.9,2.4-2.1,3c-17.6,8.8-150.3,32.7-173.2,43.7c-1.6,0.8-3.5-0.3-3.6-2.1
	c-0.3-4.6,1-8.5,0.8-13.2c-0.7-17.5-1.5-34.9-2-52.4c-0.2-6-1.3-12-0.7-18.1c0.3-3.3,2.3-6.3,5.3-7.8c0,0,69.8-18.8,95.7-23.9
	C193.5,279.6,249.3,264.7,249.3,264.7z"/>
<path id="i1" fill="none" stroke="#000000" stroke-width="0.25" stroke-miterlimit="10" d="M226.9,170.5c0.6-0.3,1.3,0.3,1.1,1
	c-3.3,11.7-3.6,27.4-1.1,39c1,4.7,2.6,9.4,5.5,13.3c5.8,7.8,10,16.2,14.6,24.4c0.8,1.5,0.5,6.8,0.5,6.8c-0.1,1.7-0.7,2.8-1.7,3.2
	c-17.9,8-47.8,11.7-65.4,17.2c-12.2,3.8-75.2,17.9-94.4,22c-5.2,1.1-9.1,5.2-13.1,8.4c-1.3-2.4-1.1-4.5-0.6-6.3
	c4.3-16.3,5.6-32.4,10.3-48.5c3.3-11.2,7.6-22,14-31.8c2.2-3.4,5.7-5.2,9.2-6.3c11.4-4.4,47.2-16.1,78.2-24.3
	C210.9,181.3,226.9,170.5,226.9,170.5z"/>
<path id="i0" fill="none" stroke="#000000" stroke-width="0.25" stroke-miterlimit="10" d="M211.5,54.8c-36,3.3-74,17.4-110,22.1
	c-27.7,3.6-26.9,51.3-29.2,70.5C67.1,207.5,62,267.4,54.7,327.2c-0.8,6.7-10.7,39.4,10.1,45.3c0.9,0.3,1.3,1.5,0.6,2.2
	c-11.3,12.6-27.2,28.7-46.1,38.1c-1.7,0.9-4.3-0.2-3.6-1.9c4.4-10.4,5.5-39,6-43.1c2.8-24.2,7.4-47.8,8.4-72.3
	c2-53.4,14.6-201.2,17.6-221.9c2.5-16.8-0.3-41.4,10.2-55.8C72.3-2,114,10.2,134.3,10.9c13,0.4,26.1,0.9,39.1,1.1
	c18.2,0.3,47.7-15.6,64.4-9.1c25.8,10,32,13.4,36.9,41.2c4.7,26.6,10,53.2,12,80.2c3.9,51.2,3,101.6,5.9,152.8
	c0.8,13.8,17,135.5,9,138.3c-2.7,1-29.8-34.9-38.9-35.7c-1.6-0.1-2.5-1.8-2-3.3c1.3-3.5,4.6-5.3,8.5-7.2c7.7-6.4,4.2-20.3,3.7-28
	c-1.8-32.1-8.3-63.4-11.9-95.3c-2.9-25.5-5.2-51.1-8.3-76.5c-0.9-7.3-10.9-48.1-13.5-59.9c-0.2-0.7-1.2-0.8-1.5-0.1
	c-9.6,23.4-1.7,43.8-15.2,56.3c-8.7,8.1-24.2,12.7-35.2,16.1c-29.5,8.9-59.1,14-86.3,28.3c-0.4,0.2-0.8-0.3-0.5-0.6
	c21.2-25.4-47.5-118.5,1.2-127.4c25.3-4.6,50.3-10.7,75.6-15c14.8-2.5,29.6-4.6,44.5-6.4c2.8-0.3,5.7-0.7,8.5-1
	c11.9-1.8,2.3,8.3,8.1,9c1.9,0.2,4.6-12.6,3.2-14.6C241.2,53,214,54.6,211.5,54.8z"/>
</svg>
