<?xml version="1.0" encoding="utf-8"?>
<!-- Generator: Adobe Illustrator 17.1.0, SVG Export Plug-In . SVG Version: 6.00 Build 0)  -->
<!DOCTYPE svg PUBLIC "-//W3C//DTD SVG 1.1//EN" "http://www.w3.org/Graphics/SVG/1.1/DTD/svg11.dtd">
<svg version="1.1" id="Layer_1" xmlns="http://www.w3.org/2000/svg" xmlns:xlink="http://www.w3.org/1999/xlink" x="0px" y="0px"
	 viewBox="0 0 600 600" enable-background="new 0 0 600 600" xml:space="preserve">
<rect width="600" height="600"/>
<g>
	<path fill="#FFFFFF" d="M88.6,341c8.5-10.3,12.7-22.9,18.6-34.6c3.7-7.3,7.1-14.8,10.5-22.2c0.7-1.5,0.7-3.3,1.2-5.3
		c6.5,0,13.7,0,20.4,0c0.5,2.2,0.8,4.4,1.6,6.4c6.7,14.8,13.5,29.5,20.5,44.1c2,4.1,4.8,7.8,7.2,11.6c-6.5,0-13.1,0-19.6,0
		c0.6-1.2,1.9-2.6,1.7-3.7c-0.6-3.2-1.7-6.4-2.8-9.5c-0.1-0.4-1.2-0.6-1.8-0.6c-11.6,0-23.3,0-34.9,0c-0.8,0-1.8,0.3-2.3,0.9
		c-3.1,3.8-2.9,9.3,0.4,12.9C102.4,341,95.5,341,88.6,341z M128.6,286.6c-5.1,10.5-9.9,20.4-14.8,30.6c10,0,19.4,0,29.3,0
		C138.3,307,133.6,297.1,128.6,286.6z"/>
	<path fill="#FFFFFF" d="M194.1,341c3.8-2.7,4.8-6.6,4.8-10.9c0-13.1,0-26.1,0-39.2c0-4.5-0.2-8.9-5-12.2c7.7,0,14.5,0,21.7,0
		c-5.3,4.8-4.6,10.9-4.6,16.8c0,11.7,0,23.5,0,35.3c0.5,0.2,0.9,0.4,1.3,0.4c8.6,0,17.3,0,25.9-0.1c5.3-0.1,10.2-1.5,15.4-4.5
		c-1.1,3.2-2.2,5.8-2.8,8.5c-0.4,1.9-0.1,3.9-0.2,5.9C231.8,341,212.9,341,194.1,341z"/>
	<path fill="#FFFFFF" d="M274.6,341c8.5-10.3,12.7-22.9,18.6-34.6c3.7-7.3,7.1-14.8,10.5-22.2c0.7-1.5,0.7-3.3,1.2-5.3
		c6.5,0,13.7,0,20.4,0c0.5,2.2,0.8,4.4,1.6,6.4c6.7,14.8,13.5,29.5,20.5,44.1c2,4.1,4.8,7.8,7.2,11.6c-6.5,0-13.1,0-19.6,0
		c0.6-1.2,1.9-2.6,1.7-3.7c-0.6-3.2-1.7-6.4-2.8-9.5c-0.1-0.4-1.2-0.6-1.8-0.6c-11.6,0-23.3,0-34.9,0c-0.8,0-1.8,0.3-2.3,0.9
		c-3.1,3.8-2.9,9.3,0.4,12.9C288.3,341,281.5,341,274.6,341z M314.5,286.7c-5.1,10.5-9.9,20.4-14.8,30.6c10,0,19.4,0,29.3,0
		C324.3,307,319.5,297.1,314.5,286.7z"/>
	<path fill="#FFFFFF" d="M381.6,341c4.3-3.1,5-7.7,5-12.5c0.1-7.9,0-15.9,0-23.8c0-4.9-0.1-9.9-0.1-14.8c0-4.2-0.9-8-4.7-11.1
		c7.3,0,14.1,0,21.4,0c-6,5.5-4.3,12.7-4.4,19.4c-0.2,10.1,0,20.1,0,30.2c0,4.8,0.6,9.3,4.6,12.7C396.1,341,388.8,341,381.6,341z"/>
	<path fill="#FFFFFF" d="M385.6,268.5c-2.8-0.1-4.8-2.1-4.7-4.9c0.1-2.5,2.3-4.7,4.8-4.6c2.6,0,4.8,2.4,4.7,5
		C390.4,266.6,388.3,268.6,385.6,268.5z"/>
	<path fill="#FFFFFF" d="M399.5,259c2.5,0.1,4.6,2.3,4.6,4.9c0,2.7-2,4.7-4.7,4.6c-2.8,0-4.8-2.2-4.7-4.9
		C394.7,261.1,396.9,258.9,399.5,259z"/>
	<path fill="#FFFFFF" d="M431.4,341c7.3-8.4,10.9-18.9,15.8-28.6c4.6-9.3,9-18.8,13.3-28.2c0.7-1.5,0.7-3.2,1.1-5.2
		c6.5,0,13.7,0,20.2,0c0.7,2.4,1.1,4.8,2,6.9c6.7,14.7,13.4,29.3,20.4,43.9c1.9,4,4.7,7.6,7.1,11.4c-6.5,0-13.1,0-19.6,0
		c2.3-2.5,2.1-5.3,1.1-8.2c-0.5-1.4-1-2.9-1.8-4.1c-0.5-0.8-1.7-1.6-2.6-1.6c-11.6-0.1-23.1-0.1-34.7,0c-0.8,0-1.8,0.4-2.2,0.9
		c-3.2,4.1-3,9.1,0.4,12.9C445.1,341,438.3,341,431.4,341z M485.9,317.3c-4.9-10.2-9.6-20.1-14.6-30.6c-5.1,10.5-9.9,20.4-14.8,30.6
		C466.6,317.3,476.1,317.3,485.9,317.3z"/>
</g>
</svg>
