<?xml version="1.0" encoding="utf-8"?>
<!-- Generator: Adobe Illustrator 17.1.0, SVG Export Plug-In . SVG Version: 6.00 Build 0)  -->
<!DOCTYPE svg PUBLIC "-//W3C//DTD SVG 1.1//EN" "http://www.w3.org/Graphics/SVG/1.1/DTD/svg11.dtd">
<svg version="1.1" id="Layer_1" xmlns="http://www.w3.org/2000/svg" xmlns:xlink="http://www.w3.org/1999/xlink" x="0px" y="0px"
	 viewBox="0 0 515 100" enable-background="new 0 0 515 100" xml:space="preserve">
<g>
	<path d="M0,100C10.4,87.4,15.4,72,22.6,57.8c4.5-8.9,8.7-18,12.8-27.1c0.8-1.8,0.9-4,1.4-6.4c7.9,0,16.7,0,24.8,0
		c0.7,2.6,0.9,5.4,2,7.8c8.2,18,16.4,35.9,25,53.8c2.4,5,5.9,9.4,8.8,14.2c-8,0-15.9,0-23.9,0c0.7-1.5,2.3-3.2,2-4.5
		c-0.7-3.9-2.1-7.8-3.4-11.6c-0.2-0.5-1.4-0.8-2.2-0.8c-14.2,0-28.4,0-42.6,0c-0.9,0-2.2,0.4-2.8,1.1c-3.8,4.7-3.5,11.3,0.5,15.8
		C16.8,100,8.4,100,0,100z M48.7,33.7c-6.2,12.8-12,24.9-18,37.3c12.2,0,23.7,0,35.7,0C60.5,58.5,54.8,46.5,48.7,33.7z"/>
	<path d="M128.4,100c4.6-3.2,5.9-8,5.9-13.2c0-15.9,0-31.8,0-47.7c0-5.4-0.3-10.8-6.1-14.8c9.3,0,17.6,0,26.5,0
		c-6.4,5.8-5.6,13.3-5.6,20.5c0,14.3,0,28.6,0,43c0.6,0.2,1.1,0.5,1.6,0.5c10.5,0,21.1,0,31.6-0.1c6.4-0.1,12.5-1.9,18.7-5.5
		c-1.3,3.9-2.7,7.1-3.4,10.3c-0.5,2.3-0.2,4.8-0.2,7.1C174.5,100,151.4,100,128.4,100z"/>
	<path d="M226.5,100c10.4-12.5,15.4-27.9,22.6-42.2c4.5-8.9,8.7-18,12.8-27.1c0.8-1.8,0.9-4,1.4-6.4c7.9,0,16.7,0,24.8,0
		c0.7,2.6,0.9,5.4,2,7.8c8.2,18,16.4,35.9,25,53.8c2.4,5,5.9,9.4,8.8,14.2c-8,0-15.9,0-23.9,0c0.7-1.5,2.3-3.2,2-4.5
		c-0.7-3.9-2.1-7.8-3.4-11.6c-0.2-0.5-1.4-0.8-2.2-0.8c-14.2,0-28.4,0-42.6,0c-0.9,0-2.2,0.4-2.8,1.1c-3.8,4.7-3.5,11.3,0.5,15.8
		C243.3,100,234.9,100,226.5,100z M275.2,33.7c-6.2,12.8-12,24.9-18,37.3c12.2,0,23.7,0,35.7,0C287,58.6,281.3,46.5,275.2,33.7z"/>
	<path d="M356.9,100c5.2-3.8,6.1-9.4,6.1-15.2c0.1-9.7,0.1-19.4,0-29c0-6-0.1-12-0.2-18.1c-0.1-5.1-1.1-9.8-5.7-13.5
		c8.9,0,17.2,0,26.1,0c-7.4,6.8-5.3,15.5-5.4,23.6c-0.2,12.3-0.1,24.5,0,36.8c0,5.8,0.7,11.4,5.6,15.4
		C374.5,100,365.7,100,356.9,100z"/>
	<path d="M361.8,11.6c-3.4-0.1-5.8-2.6-5.7-6c0.1-3,2.9-5.7,5.9-5.6c3.1,0,5.8,2.9,5.7,6.1C367.6,9.3,365.1,11.7,361.8,11.6z"/>
	<path d="M378.7,0c3,0.1,5.6,2.8,5.6,6c0,3.3-2.4,5.7-5.7,5.7c-3.4,0-5.9-2.6-5.8-6C372.8,2.6,375.6-0.1,378.7,0z"/>
	<path d="M417.6,100c8.8-10.3,13.3-23,19.2-34.9c5.6-11.4,10.9-22.9,16.2-34.4c0.8-1.8,0.9-4,1.4-6.4c7.9,0,16.7,0,24.6,0
		c0.8,2.9,1.3,5.8,2.5,8.3c8.2,17.9,16.4,35.8,24.9,53.5c2.3,4.9,5.7,9.2,8.6,13.9c-8,0-15.9,0-23.9,0c2.8-3,2.6-6.4,1.4-9.9
		c-0.6-1.7-1.2-3.5-2.2-5c-0.6-0.9-2.1-1.9-3.1-1.9c-14.1-0.1-28.2-0.1-42.2,0c-0.9,0-2.2,0.4-2.7,1.1c-3.9,5-3.6,11.1,0.5,15.8
		C434.3,100,425.9,100,417.6,100z M484,71c-5.9-12.4-11.7-24.5-17.8-37.3c-6.2,12.8-12,24.9-18,37.3C460.5,71,472,71,484,71z"/>
</g>
</svg>
