<?xml version="1.0" encoding="utf-8"?>
<!-- Generator: Adobe Illustrator 17.1.0, SVG Export Plug-In . SVG Version: 6.00 Build 0)  -->
<!DOCTYPE svg PUBLIC "-//W3C//DTD SVG 1.1//EN" "http://www.w3.org/Graphics/SVG/1.1/DTD/svg11.dtd">
<svg version="1.1" id="Layer_1" xmlns="http://www.w3.org/2000/svg" xmlns:xlink="http://www.w3.org/1999/xlink" x="0px" y="0px"
	 viewBox="0 0 600 100" enable-background="new 0 0 600 100" xml:space="preserve">
<g>
	<linearGradient id="SVGID_1_" gradientUnits="userSpaceOnUse" x1="-12.2756" y1="21.262" x2="87.2756" y2="78.738">
		<stop  offset="0" style="stop-color:#E74C3C"/>
		<stop  offset="1" style="stop-color:#B7180B"/>
	</linearGradient>
	<polygon fill="url(#SVGID_1_)" points="75,100 0,50.5 0,0 75,50.5 	"/>
	<linearGradient id="SVGID_2_" gradientUnits="userSpaceOnUse" x1="62.7244" y1="78.738" x2="162.2756" y2="21.262">
		<stop  offset="0" style="stop-color:#C0392B"/>
		<stop  offset="1" style="stop-color:#E74C3C"/>
	</linearGradient>
	<polygon fill="url(#SVGID_2_)" points="75,100 150,50.5 150,0 75,50.5 	"/>
	<linearGradient id="SVGID_3_" gradientUnits="userSpaceOnUse" x1="137.8494" y1="21.0455" x2="238.1506" y2="78.9545">
		<stop  offset="0" style="stop-color:#E74C3C"/>
		<stop  offset="1" style="stop-color:#B7180B"/>
	</linearGradient>
	<polygon fill="url(#SVGID_3_)" points="226,100 150,50.5 150,0 226,50.5 	"/>
	<linearGradient id="SVGID_4_" gradientUnits="userSpaceOnUse" x1="213.5994" y1="78.5215" x2="312.4006" y2="21.4785">
		<stop  offset="0" style="stop-color:#C0392B"/>
		<stop  offset="1" style="stop-color:#E74C3C"/>
	</linearGradient>
	<polygon fill="url(#SVGID_4_)" points="226,100 300,50.5 300,0 226,50.5 	"/>
	<g>
		<linearGradient id="SVGID_5_" gradientUnits="userSpaceOnUse" x1="335.0081" y1="48.5613" x2="375.8726" y2="72.1544">
			<stop  offset="0" style="stop-color:#E74C3C"/>
			<stop  offset="1" style="stop-color:#B7180B"/>
		</linearGradient>
		<polygon fill="url(#SVGID_5_)" points="375,100 300,50.5 300,0 375,50.5 		"/>
		<linearGradient id="SVGID_6_" gradientUnits="userSpaceOnUse" x1="362.7244" y1="78.738" x2="462.2756" y2="21.262">
			<stop  offset="0" style="stop-color:#C0392B"/>
			<stop  offset="1" style="stop-color:#E74C3C"/>
		</linearGradient>
		<polygon fill="url(#SVGID_6_)" points="375,100 450,50.5 450,0 375,50.5 		"/>
		<linearGradient id="SVGID_7_" gradientUnits="userSpaceOnUse" x1="450" y1="50" x2="526" y2="50">
			<stop  offset="0" style="stop-color:#E74C3C"/>
			<stop  offset="1" style="stop-color:#B7180B"/>
		</linearGradient>
		<polygon fill="url(#SVGID_7_)" points="526,100 450,50.5 450,0 526,50.5 		"/>
		<linearGradient id="SVGID_8_" gradientUnits="userSpaceOnUse" x1="526" y1="50" x2="600" y2="50">
			<stop  offset="0" style="stop-color:#C0392B"/>
			<stop  offset="1" style="stop-color:#E74C3C"/>
		</linearGradient>
		<polygon fill="url(#SVGID_8_)" points="526,100 600,50.5 600,0 526,50.5 		"/>
	</g>
</g>
</svg>
