<?xml version="1.0" encoding="utf-8"?>
<!-- Generator: Adobe Illustrator 17.0.0, SVG Export Plug-In . SVG Version: 6.00 Build 0)  -->
<!DOCTYPE svg PUBLIC "-//W3C//DTD SVG 1.1//EN" "http://www.w3.org/Graphics/SVG/1.1/DTD/svg11.dtd">
<svg version="1.1" id="Layer_1" xmlns="http://www.w3.org/2000/svg" xmlns:xlink="http://www.w3.org/1999/xlink" x="0px" y="0px"
	 width="335.248px" height="50px" viewBox="0 0 335.248 50" enable-background="new 0 0 335.248 50" xml:space="preserve">
<g class="hide-for-small">
	<path fill="#353535" d="M30.411,0.65v38.137H20.5v-4.084c-1.388,1.734-2.653,2.905-3.799,3.512
		c-1.525,0.799-3.226,1.197-5.099,1.197c-3.764,0-6.638-1.431-8.624-4.293C0.993,32.258,0,28.781,0,24.688
		c0-4.579,1.098-8.082,3.291-10.51c2.194-2.428,4.981-3.643,8.364-3.643c1.647,0,3.143,0.278,4.487,0.833s2.536,1.387,3.577,2.497
		V0.65H30.411z M19.797,24.896c0-2.168-0.459-3.785-1.378-4.852c-0.92-1.067-2.081-1.6-3.486-1.6c-1.231,0-2.264,0.512-3.096,1.535
		s-1.249,2.74-1.249,5.151c0,2.255,0.43,3.907,1.288,4.956s1.921,1.574,3.187,1.574c1.353,0,2.48-0.529,3.382-1.588
		C19.347,29.016,19.797,27.289,19.797,24.896z"/>
	<path fill="#353535" d="M67.735,27.602H46.508c0.19,1.699,0.65,2.965,1.379,3.798c1.023,1.196,2.358,1.796,4.006,1.796
		c1.041,0,2.029-0.261,2.966-0.781c0.572-0.33,1.188-0.91,1.847-1.742l10.433,0.962c-1.596,2.774-3.521,4.765-5.775,5.97
		c-2.255,1.206-5.489,1.809-9.703,1.809c-3.66,0-6.539-0.516-8.638-1.548c-2.098-1.032-3.837-2.671-5.216-4.917
		s-2.068-4.887-2.068-7.921c0-4.318,1.384-7.813,4.149-10.484c2.767-2.67,6.586-4.006,11.46-4.006c3.954,0,7.076,0.599,9.365,1.795
		s4.032,2.931,5.229,5.203c1.197,2.272,1.795,5.229,1.795,8.871v1.195H67.735z M56.966,22.529c-0.208-2.047-0.759-3.512-1.652-4.396
		c-0.893-0.885-2.068-1.327-3.524-1.327c-1.683,0-3.026,0.668-4.032,2.003c-0.642,0.833-1.05,2.072-1.223,3.72H56.966z"/>
	<path fill="#353535" d="M92.189,11.16h9.911v26.093l0.026,1.223c0,1.734-0.368,3.386-1.105,4.956
		c-0.737,1.569-1.717,2.84-2.939,3.811c-1.223,0.972-2.775,1.674-4.657,2.107S89.389,50,86.961,50c-5.55,0-9.361-0.832-11.434-2.498
		c-2.073-1.664-3.109-3.893-3.109-6.686c0-0.346,0.018-0.814,0.053-1.404l10.275,1.17c0.26,0.955,0.659,1.613,1.196,1.979
		c0.781,0.537,1.761,0.806,2.94,0.806c1.525,0,2.666-0.407,3.421-1.223c0.754-0.815,1.131-2.237,1.131-4.267v-4.188
		c-1.04,1.23-2.081,2.124-3.121,2.68c-1.631,0.866-3.391,1.3-5.281,1.3c-3.694,0-6.677-1.612-8.949-4.839
		c-1.612-2.289-2.419-5.315-2.419-9.079c0-4.301,1.04-7.579,3.122-9.833c2.081-2.255,4.804-3.382,8.168-3.382
		c2.15,0,3.924,0.364,5.32,1.093c1.396,0.729,2.701,1.934,3.915,3.616V11.16z M82.226,24.558c0,1.995,0.425,3.474,1.275,4.436
		c0.85,0.962,1.968,1.444,3.355,1.444c1.318,0,2.424-0.499,3.316-1.496c0.894-0.998,1.34-2.502,1.34-4.514s-0.468-3.551-1.404-4.618
		s-2.081-1.6-3.435-1.6c-1.353,0-2.432,0.49-3.238,1.47C82.629,20.66,82.226,22.286,82.226,24.558z"/>
	<path fill="#353535" d="M109.04,0.65h10.614v38.137H109.04V0.65z"/>
	<path fill="#353535" d="M126.78,0.65h10.588v7.206H126.78V0.65z M126.78,11.16h10.588v27.627H126.78V11.16z"/>
	<path fill="#353535" d="M192.571,27.602h-21.229c0.191,1.699,0.65,2.965,1.379,3.798c1.023,1.196,2.358,1.796,4.007,1.796
		c1.04,0,2.028-0.261,2.965-0.781c0.572-0.33,1.188-0.91,1.848-1.742l10.432,0.962c-1.596,2.774-3.521,4.765-5.775,5.97
		c-2.255,1.206-5.489,1.809-9.703,1.809c-3.659,0-6.538-0.516-8.637-1.548s-3.838-2.671-5.216-4.917
		c-1.379-2.246-2.068-4.887-2.068-7.921c0-4.318,1.383-7.813,4.149-10.484c2.766-2.67,6.586-4.006,11.459-4.006
		c3.954,0,7.076,0.599,9.365,1.795s4.032,2.931,5.229,5.203c1.196,2.272,1.795,5.229,1.795,8.871L192.571,27.602L192.571,27.602z
		 M181.801,22.529c-0.208-2.047-0.759-3.512-1.651-4.396c-0.894-0.885-2.068-1.327-3.525-1.327c-1.683,0-3.026,0.668-4.032,2.003
		c-0.642,0.833-1.049,2.072-1.223,3.72H181.801z"/>
	<path fill="#353535" d="M209.647,11.16h5.047v7.752h-5.047v19.875h-10.614V18.913h-3.954V11.16h3.954V9.912
		c0-1.127,0.122-2.367,0.364-3.72c0.243-1.353,0.698-2.458,1.366-3.317c0.667-0.858,1.604-1.552,2.81-2.081
		C204.778,0.265,206.543,0,208.867,0c1.855,0,4.553,0.217,8.09,0.65l-1.17,6.399c-1.267-0.208-2.29-0.312-3.07-0.312
		c-0.953,0-1.639,0.16-2.055,0.481c-0.416,0.321-0.711,0.828-0.885,1.521C209.69,9.123,209.647,9.929,209.647,11.16z"/>
	<path fill="#353535" d="M231.701,11.16h5.047v7.752h-5.047v19.875h-10.614V18.913h-3.954V11.16h3.954V9.912
		c0-1.127,0.122-2.367,0.364-3.72c0.243-1.353,0.698-2.458,1.366-3.317s1.604-1.552,2.81-2.081S228.597,0,230.921,0
		c1.855,0,4.553,0.217,8.091,0.65l-1.171,6.399c-1.267-0.208-2.289-0.312-3.07-0.312c-0.953,0-1.639,0.16-2.055,0.481
		s-0.711,0.828-0.885,1.521C231.744,9.123,231.701,9.929,231.701,11.16z"/>
	<path fill="#353535" d="M271.478,27.602H250.25c0.19,1.699,0.65,2.965,1.378,3.798c1.023,1.196,2.359,1.796,4.007,1.796
		c1.04,0,2.029-0.261,2.966-0.781c0.572-0.33,1.188-0.91,1.847-1.742l10.432,0.962c-1.596,2.774-3.521,4.765-5.775,5.97
		c-2.254,1.206-5.488,1.809-9.703,1.809c-3.659,0-6.538-0.516-8.637-1.548s-3.837-2.671-5.216-4.917s-2.068-4.887-2.068-7.921
		c0-4.318,1.383-7.813,4.149-10.484c2.767-2.67,6.586-4.006,11.459-4.006c3.955,0,7.076,0.599,9.365,1.795
		c2.29,1.197,4.032,2.931,5.229,5.203c1.196,2.272,1.795,5.229,1.795,8.871L271.478,27.602L271.478,27.602z M260.707,22.529
		c-0.208-2.047-0.759-3.512-1.651-4.396c-0.894-0.885-2.068-1.327-3.525-1.327c-1.682,0-3.026,0.668-4.032,2.003
		c-0.642,0.833-1.049,2.072-1.223,3.72H260.707z"/>
	<path fill="#353535" d="M288.98,0.65v10.51h5.828v7.752h-5.828v9.789c0,1.177,0.113,1.955,0.339,2.336
		c0.347,0.588,0.954,0.883,1.821,0.883c0.78,0,1.873-0.226,3.277-0.674l0.78,7.308c-2.618,0.572-5.064,0.858-7.336,0.858
		c-2.636,0-4.578-0.338-5.827-1.012c-1.249-0.678-2.172-1.703-2.771-3.081c-0.599-1.377-0.897-3.605-0.897-6.69v-9.716h-3.902V11.16
		h3.902V6.087L288.98,0.65z"/>
	<path fill="#353535" d="M312.917,0.65v10.51h5.827v7.752h-5.827v9.789c0,1.177,0.112,1.955,0.338,2.336
		c0.347,0.588,0.954,0.883,1.821,0.883c0.78,0,1.873-0.226,3.277-0.674l0.78,7.308c-2.618,0.572-5.063,0.858-7.336,0.858
		c-2.636,0-4.578-0.338-5.827-1.012c-1.249-0.678-2.172-1.703-2.771-3.081c-0.599-1.377-0.897-3.605-0.897-6.69v-9.716H298.4V11.16
		h3.902V6.087L312.917,0.65z"/>
	<path fill="#353535" d="M324.66,0.65h10.588v7.206H324.66V0.65z M324.66,11.16h10.588v27.627H324.66V11.16z"/>
</g>


</svg>
